<svg id="svg" version="1.1" viewBox="0 0 300 200" width="300" height="200" xmlns="http://www.w3.org/2000/svg"><svg xmlns="http://www.w3.org/2000/svg"><defs><clipPath id="clip-1"><rect x="0" y="0" transform="scale(0.14648,0.14652)" width="2048" height="1365" fill="none"/></clipPath><linearGradient x1="147.55518" y1="97.92278" x2="145.90532" y2="111.54681" gradientUnits="userSpaceOnUse" id="color-1"><stop offset="0" stop-color="#1970bb"/><stop offset="1" stop-color="#2987d7"/></linearGradient><linearGradient x1="179.40527" y1="115.55736" x2="168.10693" y2="112.25363" gradientUnits="userSpaceOnUse" id="color-2"><stop offset="0" stop-color="#ffa426"/><stop offset="1" stop-color="#ffcb60"/></linearGradient></defs><g clip-path="url(#clip-1)" fill="none" fill-rule="nonzero" stroke="none" stroke-width="1" stroke-linecap="butt" stroke-linejoin="miter" stroke-miterlimit="10" stroke-dasharray="" stroke-dashoffset="0" font-family="none" font-weight="none" font-size="none" text-anchor="none" style="mix-blend-mode: normal"><path d="M0,0h300v200h-300z" fill="#ffffff"/><path d="M109.5375,59.04791c-2.38667,-8.07282 -3.19526,-16.58212 -2.45127,-24.9137c0.48721,-5.45729 2.09194,-13.28352 9.2064,-12.22945c9.08467,1.34623 19.16089,10.20103 24.64175,17.02579c5.69648,-0.56249 10.96553,0.01216 16.50996,1.29905c1.4707,-1.1619 3.15381,-2.75209 4.62158,-3.91634c9.19189,-7.28835 31.69482,-21.31121 30.87744,1.72103c-0.36182,10.20425 -2.06543,17.7348 -6.104,27.0844c1.30664,4.84073 2.56494,9.53363 5.3291,13.7915c0.77344,1.18989 2.87695,2.65817 2.5708,3.99678c-0.76318,1.2611 -3.93896,2.76029 -5.34375,3.27692c2.47998,1.65333 1.13818,2.46725 -0.73242,3.99311c-2.96191,2.41509 -6.32373,4.26974 -9.72949,5.97333c2.44629,0.29817 13.18066,2.75897 10.80908,7.04059c-1.11768,2.01934 -3.9917,3.51179 -6.22559,4.12c0.67236,1.12352 1.82666,3.14799 1.57471,4.50462c-0.08643,0.47531 -0.36768,0.89275 -0.7749,1.1515c-1.49854,0.94315 -5.02002,0.43722 -6.74561,0.09905c0.99463,1.62212 1.64648,3.09626 2.41992,4.83179c3.7793,-0.02359 3.85254,-0.04894 5.33936,3.72205c0.77637,1.9704 1.49561,3.83062 1.99072,5.91795c7.69043,-5.53656 15.32959,-11.06403 25.22607,-11.43048c1.74756,-0.06476 2.23828,0.17685 2.86377,1.84513c4.59814,12.27634 0.94336,28.67018 -12.27832,33.74271c-8.68945,3.33333 -20.46973,1.663 -28.81201,-1.97363c0.00586,3.47546 -0.11279,6.23883 -0.35596,9.70696c2.64551,1.60147 3.96387,2.65788 4.87207,5.65568c2.71436,0.39121 14.77441,1.41392 15.20508,4.12894c-1.43262,4.49524 -34.72998,5.05348 -39.84668,5.06813c-8.07363,0.08938 -16.14771,-0.18315 -24.19761,-0.81465c-3.62944,-0.29744 -16.65498,-1.44908 -18.63999,-3.93993c-0.86982,-2.94212 8.98711,-3.19121 10.5813,-3.9326c-0.17109,-3.14286 1.24424,-4.75018 3.88052,-6.22418c-7.39453,-15.17363 -8.54136,-31.92762 -4.27046,-48.19883c-0.07896,-0.01026 -0.15776,-0.02212 -0.23613,-0.0356c-7.0771,-1.19282 -17.03599,-7.45582 -22.47246,-12.08176c-1.80894,-1.17626 -4.21685,-4.29802 -6.01274,-5.23707c-3.03809,-1.58857 -14.22173,-6.53744 -7.4647,-10.85421c-2.4668,-6.11004 3.80566,-5.79414 3.88359,-6.2315c1.24351,-6.97905 6.03062,-4.33216 8.56934,-0.53817c0.24229,-0.12586 0.4897,-0.24147 0.7418,-0.34637c1.229,-0.50564 2.10059,-0.04791 3.24624,0.42535c0.59897,-0.97084 0.38203,-0.66242 1.4439,-1.08557c-0.45176,-0.84029 -2.80547,-2.18857 -3.25532,-3.43531c-0.49863,-1.37348 1.56313,-1.80396 2.39033,-2.42828c3.4043,-2.56938 5.35972,-6.53832 7.15459,-10.27473z" fill="#411802"/><path d="M121.93901,165.59414c0.48472,1.6293 1.16821,2.75751 2.92822,3.29084c4.38706,1.32747 10.08325,1.10769 14.35327,-0.55531c1.96655,-0.7663 2.55117,-2.74286 3.20742,-4.49377c0.08013,0.06447 0.16025,0.12747 0.24038,0.19194c4.10757,0.03223 8.22085,-0.13626 12.33267,-0.0674c0.42627,0.00733 1.21875,0.04396 1.56152,-0.18315c2.28662,3.51355 2.22949,5.02418 6.92578,5.83297c4.14697,0.71502 9.71045,1.58828 13.64502,-0.42198c1.53516,-0.78388 1.78857,-2.58315 1.70361,-4.10403c2.71436,0.39121 14.77441,1.41392 15.20508,4.12894c-1.43262,4.49524 -34.72998,5.05348 -39.84668,5.06813c-8.07363,0.08938 -16.14771,-0.18315 -24.19761,-0.81465c-3.62944,-0.29744 -16.65498,-1.44908 -18.63999,-3.93993c-0.86982,-2.94212 8.98711,-3.19121 10.5813,-3.9326z" fill="#fbfae8"/><path d="M144.29062,152.27399c2.23477,0.24615 4.14492,0.38095 6.39639,0.3707c1.19092,2.90403 4.27295,8.25934 5.87549,11.1326c-0.34277,0.22711 -1.13525,0.19048 -1.56152,0.18315c-4.11182,-0.06886 -8.2251,0.09963 -12.33267,0.0674c-0.08013,-0.06447 -0.16025,-0.12747 -0.24038,-0.19194c1.01543,-4.26374 1.4458,-7.23223 1.8627,-11.5619z" fill="#ffffff"/><path d="M111.87583,59.16894c-3.03838,-8.91678 -4.27104,-23.41875 -0.8373,-32.55707c1.82505,-4.85714 8.56436,-1.95736 11.79404,-0.22828c6.0356,3.2315 11.93394,8.51355 16.26182,13.82842c-1.35352,0.3852 -1.81948,0.56103 -3.11309,1.11238c6.43301,-0.67736 12.33999,-0.63092 18.75601,0.42095c1.94531,0.31897 5.33643,1.36498 6.97266,1.54549c-1.06055,-0.69744 -1.53076,-0.93055 -2.66895,-1.45245c6.44824,-6.27604 16.86621,-13.68352 26.20313,-14.343c5.79492,-0.40923 5.71729,8.74447 5.46973,12.65451c-0.5083,7.99443 -2.61182,17.31619 -6.08057,24.57319c1.47363,6.90183 3.00293,11.53143 7.13818,17.24527c0.1582,0.11678 0.11572,0.103 0.21973,0.297c-0.81885,1.53216 -6.01465,2.78916 -7.71387,3.10359c1.01953,0.96147 2.53418,1.80571 3.75586,2.54784c-16.01514,12.86418 -40.34619,15.42139 -59.09458,7.68542c-10.3021,-4.25084 -17.57578,-10.14198 -24.5269,-18.68132c1.3292,-0.19897 2.28267,-0.51883 3.53057,-0.94755c-0.89092,-0.50505 -5.28853,-3.60601 -5.2415,-4.46139l0.6854,-0.30886c4.26812,-3.47692 6.13462,-7.11546 8.48965,-12.03414z" fill="#fd8b06"/><path d="M116.31372,74.05773c-1.77627,-3.71297 -2.45186,-6.98564 -1.12368,-11.09348c0.88052,-2.72352 3.12876,-5.30989 5.73604,-6.54418c2.54121,-1.19385 5.45303,-1.32557 8.09165,-0.3663c6.6082,2.41172 8.20151,9.61026 5.85366,15.71399c-0.04102,0.10564 -0.08364,0.2107 -0.12803,0.31502c4.93989,-1.75912 9.98481,-0.85832 14.60332,1.35077c0.31494,0.15121 0.62842,0.30681 0.94043,0.46681c-0.32666,-3.93158 0.09229,-7.28352 2.71582,-10.32996c7.0459,-8.18183 20.36719,-3.09392 20.63672,7.59634c0.104,4.13524 -0.98877,6.67473 -3.36475,9.8693c8.82715,-1.74696 13.00635,-0.97832 21.49658,0.93231c0.1582,0.11678 0.11572,0.103 0.21973,0.297c-0.81885,1.53216 -6.01465,2.78916 -7.71387,3.10359c1.01953,0.96147 2.53418,1.80571 3.75586,2.54784c-16.01514,12.86418 -40.34619,15.42139 -59.09458,7.68542c-10.3021,-4.25084 -17.57578,-10.14198 -24.5269,-18.68132c1.3292,-0.19897 2.28267,-0.51883 3.53057,-0.94755c-0.89092,-0.50505 -5.28853,-3.60601 -5.2415,-4.46139l0.6854,-0.30886c0.85708,-0.00044 1.88057,0.02681 2.72285,-0.01099c4.26826,0.22842 6.40737,0.86022 10.20469,2.86564z" fill="#fbfae8"/><path d="M157.59229,63.21128c3.67236,-1.30462 7.7666,-0.04982 10.07666,3.08908c2.31152,3.1389 2.29395,7.42125 -0.04102,10.54168c-2.33643,3.12059 -6.43945,4.343 -10.10156,3.00923c-3.66211,-1.33363 -6.01758,-4.90872 -5.80078,-8.80073c0.19775,-3.55678 2.51074,-6.64703 5.8667,-7.83927z" fill="#2d3119"/><path d="M157.59229,63.21128c3.67236,-1.30462 7.7666,-0.04982 10.07666,3.08908c2.31152,3.1389 2.29395,7.42125 -0.04102,10.54168c-2.33643,3.12059 -6.43945,4.343 -10.10156,3.00923c-3.66211,-1.33363 -6.01758,-4.90872 -5.80078,-8.80073c0.43506,1.5704 0.94336,3.32176 2.21338,4.40777c7.27588,6.22198 15.89795,-3.88337 9.37646,-10.46652c-1.65381,-1.66989 -3.46143,-1.87136 -5.72314,-1.78051z" fill="#85aa2f"/><path d="M157.8252,64.97773c1.42822,-0.26125 2.80078,0.67033 3.08643,2.09363c0.28564,1.42315 -0.62256,2.81245 -2.04053,3.12205c-0.93896,0.20498 -1.91455,-0.11253 -2.55322,-0.83062c-0.63867,-0.71795 -0.84082,-1.72484 -0.52881,-2.6337c0.31348,-0.90886 1.09131,-1.57846 2.03613,-1.75136z" fill="#ffffff"/><path d="M133.84644,70.19648c-0.13564,0.50256 -0.4103,1.14315 -0.67764,1.58491c-1.10435,1.84117 -2.89482,3.16821 -4.97725,3.68908c-7.6207,1.86769 -12.72202,-6.73758 -8.78569,-12.7874c1.18579,-1.82593 3.05391,-3.10022 5.18628,-3.53788c1.78535,-0.37114 4.10054,-0.21114 5.66089,0.81245c4.01396,1.83136 5.29468,6.30344 3.59341,10.23883z" fill="#2d3119"/><path d="M133.84644,70.19648c-0.13564,0.50256 -0.4103,1.14315 -0.67764,1.58491c-1.10435,1.84117 -2.89482,3.16821 -4.97725,3.68908c-7.6207,1.86769 -12.72202,-6.73758 -8.78569,-12.7874c1.18579,-1.82593 3.05391,-3.10022 5.18628,-3.53788c1.78535,-0.37114 4.10054,-0.21114 5.66089,0.81245c-4.24365,-0.50359 -7.95498,1.28967 -8.46665,5.88733c-0.20874,1.85553 0.34995,3.7159 1.54658,5.14916c2.3436,2.83092 6.3583,3.02593 9.08994,0.68293c0.50962,-0.43722 0.97397,-0.98007 1.42354,-1.48059z" fill="#85aa2f"/><path d="M128.30156,61.71062c3.38701,-0.2085 4.82417,3.3244 1.46045,4.94037c-3.42349,0.3181 -4.70713,-3.47502 -1.46045,-4.94037z" fill="#ffffff"/><path d="M132.67441,78.48601c0.2814,0.05201 0.2625,0.05905 0.48823,0.24132c0.04512,0.75839 0.72979,1.88879 1.34795,2.27692c3.97031,2.49231 9.71147,3.15048 14.13589,1.59326c1.13525,-0.39971 1.42822,-1.00029 2.10938,-1.92132c3.20801,-0.05319 0.06592,8.75956 -0.76025,10.18271c-1.20703,1.82374 -2.55615,3.15209 -4.66846,3.81641c-8.24458,2.59282 -13.04385,-6.14227 -13.28452,-13.12278c-0.02856,-0.82769 -0.17842,-1.3241 -0.4229,-2.09714c0.22808,-0.49495 0.58975,-0.66007 1.05469,-0.96938z" fill="#411802"/><path d="M138.83159,87.19516c4.03799,-0.39531 2.34478,0.90623 3.09727,1.8296c0.53027,-0.06212 1.00767,-0.62462 1.46821,-0.96103c2.1189,-1.54769 4.30459,0.54725 5.53799,2.25128c-0.78369,1.14989 -1.18213,1.5767 -2.30273,2.3981c-4.45254,2.59531 -8.79272,0.77817 -11.10117,-3.59531c1.13306,-1.12908 1.7978,-1.47648 3.30044,-1.92264z" fill="#fe8e89"/><path d="M138.50815,72.85553c1.80938,-0.17451 3.63574,-0.08645 5.44248,0.47341c1.29858,0.40249 4.50103,1.94813 3.72759,3.83487c-0.4585,1.11648 -2.0332,1.73802 -3.11353,2.13978c-7.56665,1.87648 -13.04048,-5.2948 -6.05654,-6.44806z" fill="#411802"/><path d="M137.65898,73.86139c0.62388,-0.03897 1.40479,-0.18051 1.63608,0.48645c-0.23862,0.49685 -0.67148,0.62842 -1.18799,0.89128c-0.67646,0.12557 -0.98789,0.24366 -1.47847,-0.25524l0.01772,-0.38667c0.31289,-0.46755 0.50112,-0.50095 1.01265,-0.73582z" fill="#956958"/><path d="M114.4002,56.49568c0.02227,0.94403 0.01802,2.29832 -0.48135,3.13846l-0.25547,0.14842l-0.14795,-0.09875c-0.16245,-0.10769 -0.23716,-0.14886 -0.41807,-0.23209l-0.0813,0.1685c0.90234,1.46886 -1.39058,3.3452 -1.41841,4.217c-0.03999,1.25875 -5.52261,7.63267 -5.48862,7.35487c-0.84229,0.0378 -1.86577,0.01055 -2.72285,0.01099c4.26812,-3.47692 6.13462,-7.11546 8.48965,-12.03414c1.16895,-0.31443 1.83105,-1.65158 2.52437,-2.67326z" fill="#fea22a"/><path d="M182.61475,35.35121l0.37207,0.0693c0.97705,1.26872 0.75439,5.78799 0.50244,7.49216c-0.61084,4.15136 -1.85449,8.15253 -4.20264,11.65289c-1.43994,-1.86447 -3.47461,-3.67194 -5.25439,-5.19194c-2.45215,-1.88088 -4.12939,-2.8504 -6.80566,-4.3707c3.54785,-4.00733 9.91992,-8.99883 15.38818,-9.65172z" fill="#fbfae8"/><path d="M116.36147,31.12103c5.99092,2.01055 10.03389,5.78432 13.52666,11.01099c-2.61226,0.98549 -3.83115,1.50901 -6.28667,2.8819c-2.43911,1.55238 -4.15898,2.91253 -6.2168,4.96029c-2.33774,-5.98623 -3.41147,-12.72747 -1.02319,-18.85319z" fill="#fbfae8"/><path d="M160.99512,53.36923c1.49854,-0.11238 2.99121,0.40264 4.3374,0.98608c-0.75439,-0.07341 -3.45996,-0.77744 -4.3374,-0.98608z" fill="#7b3d05"/><path d="M102.45322,85.87766c5.34668,3.79648 10.28423,6.98168 16.68047,8.84498c1.84336,0.537 3.49146,0.82447 5.32954,1.26916c1.04092,4.75106 2.74248,7.20366 5.97437,10.70183c9.07456,8.64718 16.37637,8.5915 27.49746,3.55927c0.72656,1.94886 1.40186,3.79062 1.82373,5.83282c-3.58008,1.09714 -16.78198,5.40747 -18.35757,8.097c-0.21489,0.36674 -0.17915,0.64645 -0.0542,1.04659c0.60015,1.92278 1.79517,3.84396 2.70542,5.65538l5.3499,10.72967c0.86133,1.68161 2.60449,5.88308 4.45752,6.40615c3.28564,0.92601 6.76758,-0.98462 9.74121,-2.15985c2.78027,-1.13875 5.62207,-2.2844 8.39063,-3.46711c0.15527,5.47604 0.28125,10.85333 -0.2666,16.30681c-0.0542,0.53626 -0.13037,1.22051 -0.06592,1.74945c2.02002,1.21905 4.37695,2.50696 5.15771,4.8967c0.46875,1.43004 -1.24951,2.48059 -2.42578,2.65348c-3.99609,0.59048 -9.92139,0.26081 -13.60693,-1.4315c-0.79248,-1.23956 -2.01709,-3.1326 -2.6543,-4.45275c-0.62402,-0.96996 -5.17969,-9.27473 -5.47998,-10.25055c0.15674,-0.23736 0.24023,-0.38681 0.37207,-0.63297l-0.16553,-0.37509c-0.75146,-0.49817 -2.87402,-0.28571 -3.84375,-0.30183c-1.70947,-0.04542 -3.41323,-0.20513 -5.10103,-0.47766c-4.83252,-0.77363 -6.34805,-1.68498 -10.71797,-3.28205c2.06675,2.91429 5.64814,4.00586 8.91709,4.86154c-0.04863,2.41319 -0.81636,7.7641 -1.41475,9.99121c-0.39873,1.57216 -0.7897,2.9641 -1.51934,4.42637c-0.09111,0.04835 -0.18296,0.09524 -0.27568,0.14212c-3.19087,1.58681 -9.6873,1.61026 -13.14653,0.76044c-1.62056,-0.39853 -2.07261,-2.01612 -1.41753,-3.45495c0.83818,-1.83883 2.45728,-2.35897 4.20322,-3.03297c-0.12642,-0.95238 -1.78462,-4.063 -2.25396,-5.17363c-6.29224,-14.87209 -6.43857,-31.12059 -1.82739,-46.60029c0.33428,-0.91414 0.45366,-1.34388 0.52339,-2.32088c-0.68921,0.26842 -1.51069,2.11927 -1.86401,2.82183c-8.99604,-0.61524 -21.00117,-9.81919 -27.42847,-15.6841c4.47964,-1.42462 5.34917,-3.27004 6.76348,-7.65465z" fill="#fd8b06"/><path d="M130.4376,106.69363c9.07456,8.64718 16.37637,8.5915 27.49746,3.55927c0.72656,1.94886 1.40186,3.79062 1.82373,5.83282c-3.58008,1.09714 -16.78198,5.40747 -18.35757,8.097c-0.21489,0.36674 -0.17915,0.64645 -0.0542,1.04659c0.60015,1.92278 1.79517,3.84396 2.70542,5.65538l5.3499,10.72967c-0.47314,0.18066 -0.95508,0.34154 -1.44141,0.48205c-4.3563,1.23956 -9.44253,0.98447 -13.44404,-1.27853c-9.45513,-5.34725 -9.97163,-17.69392 -7.19106,-26.98447c0.80347,-2.6844 1.72178,-4.67443 3.11177,-7.13978z" fill="#fbfae8"/><path d="M124.45884,108.71546c0.5896,-0.4296 0.74136,-0.70681 1.35029,-0.6233c0.44048,0.69348 -0.66123,4.68293 -0.89004,5.71018c-2.91226,13.07326 -2.27915,27.15238 2.27578,39.77861c0.50625,1.40366 3.25225,7.12088 2.89717,8.12161l-0.14531,-0.06593c-0.64541,-0.29451 -1.15239,-0.47326 -1.40654,-1.14725c-0.12642,-0.95238 -1.78462,-4.063 -2.25396,-5.17363c-6.29224,-14.87209 -6.43857,-31.12059 -1.82739,-46.60029z" fill="#fea22a"/><path d="M171.65918,160.44982c2.02002,1.21905 4.37695,2.50696 5.15771,4.8967c0.46875,1.43004 -1.24951,2.48059 -2.42578,2.65348c-3.99609,0.59048 -9.92139,0.26081 -13.60693,-1.4315c-0.79248,-1.23956 -2.01709,-3.1326 -2.6543,-4.45275c4.06348,1.24396 10.20703,1.2674 13.5293,-1.66593z" fill="#da7100"/><path d="M139.17671,166.07473c-0.09111,0.04835 -0.18296,0.09524 -0.27568,0.14212c-3.19087,1.58681 -9.6873,1.61026 -13.14653,0.76044c-1.62056,-0.39853 -2.07261,-2.01612 -1.41753,-3.45495c0.83818,-1.83883 2.45728,-2.35897 4.20322,-3.03297c0.25415,0.67399 0.76113,0.85275 1.40654,1.14725l0.14531,0.06593c3.42407,1.74359 5.95298,1.43297 9.50361,0.24762c0.40386,-0.1348 0.67852,-0.23297 1.10039,-0.30183c-0.39873,1.57216 -0.7897,2.9641 -1.51934,4.42637z" fill="#da7100"/><path d="M191.30859,127.29568c6.31494,-4.46799 13.78564,-9.06652 21.85986,-9.06564c3.00293,7.82725 2.68506,16.663 -1.73437,23.90139c-1.19092,2.66007 -5.50049,6.04 -8.24561,7.21216c-9.23145,3.93993 -19.95264,1.53114 -28.86914,-1.937l-0.15088,-5.78125c2.146,-0.92029 13.03711,-5.32777 13.98486,-6.75971c0.73682,-1.11516 -0.05859,-3.87927 -0.27246,-5.12967c1.16309,-0.78418 2.2207,-1.64938 3.42773,-2.44029z" fill="#fd8b06"/><path d="M191.30859,127.29568c6.31494,-4.46799 13.78564,-9.06652 21.85986,-9.06564c3.00293,7.82725 2.68506,16.663 -1.73437,23.90139c-0.70459,-1.46608 -2.32324,-4.76029 -3.20361,-5.98945c-1.37988,-1.92571 -5.64844,0.10037 -8.07861,-0.03458c-2.0127,-1.31414 1.93945,-6.55282 0.86572,-7.9704c-1.37842,-1.81861 -7.93066,-0.10491 -9.70898,-0.84132z" fill="#fbfae8"/><path d="M162.53906,117.50593l0.78076,1.28117l0.3457,0.53846l0.97412,1.50608c0.3999,0.503 0.45117,0.58095 0.6709,1.1833c0.56689,1.26974 1.1748,2.59941 1.53516,3.9389c-3.48193,1.92308 -7.58643,5.15883 -2.5459,8.4759c0.3252,4.88396 4.10303,4.75443 7.92188,6.04601l-8.97803,3.67766c-1.2627,0.50652 -3.89209,1.46125 -4.94824,1.99634c-1.37256,0.38505 -2.73926,-0.00718 -4.19238,-0.09656c-1.10596,-1.71722 -2.3584,-4.43531 -3.30615,-6.29509c-2.19287,-4.31121 -4.18945,-8.9096 -6.50815,-13.14183c-0.35068,-0.29963 -0.68862,-1.30154 -0.77461,-1.74901c5.15874,-3.1156 13.23003,-5.71297 19.02495,-7.36132z" fill="#237dcd"/><path d="M162.53906,117.50593l0.78076,1.28117l0.3457,0.53846l0.97412,1.50608c-5.35986,1.57729 -10.71387,3.02769 -15.76025,5.4841c-1.38721,-0.49348 -2.46724,-0.80454 -3.89355,-1.18315c-0.35522,-0.02462 -1.0916,-0.19136 -1.47173,-0.26535c5.15874,-3.1156 13.23003,-5.71297 19.02495,-7.36132z" fill="#fbfae8"/><path d="M162.53906,117.50593l0.78076,1.28117c-1.03418,0.38725 -3.3457,0.93128 -4.46777,1.23971c-2.1709,0.59722 -11.64844,3.66271 -12.88667,4.77231l-0.05757,0.17231l-0.92197,0.16117c-0.35522,-0.02462 -1.0916,-0.19136 -1.47173,-0.26535c5.15874,-3.1156 13.23003,-5.71297 19.02495,-7.36132z" fill="#ffffff"/><path d="M163.31982,118.78711l0.3457,0.53846c-5.31152,1.39311 -10.86182,2.9219 -15.97559,4.95883c-0.57275,0.22784 -1.20117,0.50476 -1.78213,0.68703l0.05757,-0.17231c1.23823,-1.1096 10.71577,-4.17509 12.88667,-4.77231c1.12207,-0.30842 3.43359,-0.85245 4.46777,-1.23971z" fill="#cdc8bd"/><path d="M155.52979,122.56264l0.38525,-0.00088c0.10986,-0.18857 -6.60205,2.3093 -7.06055,2.46256c-0.37354,0.13011 -0.24023,0.16821 -0.49658,0.06212c0.52588,-0.67282 5.99121,-2.34901 7.17188,-2.52381z" fill="#cdc8bd"/><path d="M144.28872,126.61626c0.52925,0.07868 0.68687,0.08234 1.18184,0.30081c0.82676,0.16557 2.8229,0.54549 3.33999,1.22872c2.84619,5.38066 6.03516,11.76337 8.00977,17.55238l-1.60547,0.20982c-0.34424,0.04015 -0.78223,0.07678 -1.11182,0.1452c-1.10596,-1.71722 -2.3584,-4.43531 -3.30615,-6.29509c-2.19287,-4.31121 -4.18945,-8.9096 -6.50815,-13.14183z" fill="#fbfae8"/><path d="M144.28872,126.61626c0.52925,0.07868 0.68687,0.08234 1.18184,0.30081l0.33984,0.45802c2.8771,5.50535 5.56948,11.07516 8.39224,16.61304c0.33252,0.64249 0.66943,1.28249 1.01221,1.91985c-0.34424,0.04015 -0.78223,0.07678 -1.11182,0.1452c-1.10596,-1.71722 -2.3584,-4.43531 -3.30615,-6.29509c-2.19287,-4.31121 -4.18945,-8.9096 -6.50815,-13.14183z" fill="#ffffff"/><path d="M145.8104,127.37509c1.16909,0.69304 7.66128,14.31136 8.48013,16.30696l-0.08789,0.30608c-2.82275,-5.53788 -5.51514,-11.10769 -8.39224,-16.61304z" fill="#cdc8bd"/><path d="M164.63965,120.83165c0.3999,0.503 0.45117,0.58095 0.6709,1.1833c-2.55176,0.72015 -13.92187,4.13905 -15.2417,5.43604l0.00732,0.13187c1.56152,2.74828 7.71826,15.75238 8.21924,18.56689c-1.37256,0.38505 -2.73926,-0.00718 -4.19238,-0.09656c0.32959,-0.06842 0.76758,-0.10505 1.11182,-0.1452l1.60547,-0.20982c-1.97461,-5.78901 -5.16357,-12.17172 -8.00977,-17.55238c-0.51709,-0.68322 -2.51323,-1.06315 -3.33999,-1.22872c-0.49497,-0.21846 -0.65259,-0.22212 -1.18184,-0.30081c-0.35068,-0.29963 -0.68862,-1.30154 -0.77461,-1.74901c0.38013,0.07399 1.1165,0.24073 1.47173,0.26535c1.42632,0.37861 2.50635,0.68967 3.89355,1.18315c5.04639,-2.45641 10.40039,-3.90681 15.76025,-5.4841z" fill="#25313f"/><path d="M156.27686,135.39502c0.56396,-0.01875 0.70605,-0.11253 1.16162,0.12806c0.30908,0.67429 0.12158,1.78916 0.0835,2.60894l-0.29443,0.063c-0.78662,-0.38799 -0.93164,-2.01773 -0.95068,-2.8z" fill="#2473bb"/><path d="M126.75513,97.0293c2.50474,0.77817 4.7647,1.92322 7.61001,2.70813c11.69971,3.22755 22.23252,3.14784 33.89414,0.18183c-0.97559,2.6589 -2.17969,3.6 -4.44434,5.23634c-9.94336,5.7767 -21.77139,10.377 -30.99082,0.99883c-2.99868,-3.05011 -4.80249,-4.84835 -6.06899,-9.12513z" fill="url(#color-1)"/><path d="M168.04102,104.23297l1.34033,1.36659c0.57422,0.64718 1.37256,1.49612 1.875,2.1726c3.19775,3.92396 5.96631,8.2189 7.51025,13.07238c1.18359,2.47648 1.62451,6.11678 1.59082,8.84103c-4.67285,-0.15956 -4.92334,-2.36278 -9.25342,-3.40952c-0.7998,-0.19326 -1.02832,0.20381 -1.68604,0.64498l-0.66064,-0.1537c0.73975,-3.28703 -5.33789,-11.20308 -7.38721,-13.58769l0.479,2.31355c-0.83203,0.30139 -1.22314,0.41289 -2.09033,0.59253c-0.42187,-2.0422 -1.09717,-3.88396 -1.82373,-5.83282c3.4834,-1.37011 7.31689,-3.49568 10.10596,-6.01993z" fill="#fd8b06"/><path d="M169.02832,107.29187c0.86572,0.00601 1.42969,0.09641 2.22803,0.48029c3.19775,3.92396 5.96631,8.2189 7.51025,13.07238c-0.19629,0.01993 -0.37646,0.03311 -0.57275,0.04513c-0.45703,-0.4841 -2.00244,-3.54432 -2.49023,-4.35722c-1.94385,-3.23766 -4.0415,-6.51311 -6.67529,-9.24059z" fill="url(#color-2)"/><path d="M169.02832,107.29187c-0.50977,-0.42344 -1.13965,-0.76498 -1.05762,-1.45275c0.58154,-0.33685 0.64453,-0.22198 1.41064,-0.23956c0.57422,0.64718 1.37256,1.49612 1.875,2.1726c-0.79834,-0.38388 -1.3623,-0.47429 -2.22803,-0.48029z" fill="#fea22a"/><path d="M93.50127,81.31634c-0.74341,-1.74271 -2.36807,-3.03678 -2.21323,-5.35004c0.01084,-0.36952 0.18018,-0.96366 0.52266,-1.17656c1.35044,-0.83941 2.99355,0.52938 3.75308,1.58872c0.16729,0.19004 1.48154,2.24527 1.35044,2.37348c-1.47817,1.44469 -4.09775,7.38564 -0.1292,7.61436l-0.00747,-0.16806c-1.23486,-1.4589 -1.74053,-3.12806 -0.2231,-4.73172c1.02231,-0.84645 1.27002,-3.5515 2.44863,-4.09846c1.75181,-0.81319 1.64004,3.33451 1.72808,4.03883c0.15601,1.22725 0.40137,2.44132 0.73418,3.63267l0.98789,0.8381c-1.41431,4.38462 -2.28384,6.23004 -6.76348,7.65465c-1.85742,-2.29099 -8.2812,-3.73187 -10.03594,-6.79429c-0.38086,-0.66491 -0.52544,-1.57861 0.30527,-1.92718c1.45049,-0.60879 3.69097,0.6293 5.13398,1.063c-1.26138,-1.5178 -5.96396,-4.02139 -3.69946,-6.45363c1.57705,-1.69377 4.61484,1.02989 6.10767,1.89612z" fill="#da7100"/><path d="M93.6126,83.32952c0.05991,0.03194 0.12173,0.11692 0.173,0.17465c-0.92578,1.50872 -1.5145,2.70051 -1.73101,4.47868l-0.23892,-0.23429c-0.60469,-1.50549 0.57451,-3.52454 1.79692,-4.41905z" fill="#411802"/><path d="M175.41504,97.72645c0.40576,-0.10095 1.63916,0.10637 2.09766,0.17084c3.90381,0.5493 7.35059,1.67018 10.57471,3.95531c-0.05273,0.07092 -0.10693,0.14139 -0.1626,0.21172c-2.28809,2.94066 -4.20996,3.33333 -7.69629,3.76059c0.9624,2.06374 1.8208,2.66857 2.88721,5.42403c-1.13232,0.14886 -2.27783,0.16908 -3.41455,0.06037c-1.46484,-0.20996 -2.71436,-0.61319 -4.12939,-1.04103c-1.83984,-2.65538 -3.6123,-4.95077 -5.85205,-7.2674c-0.23877,-0.24806 -0.34717,-0.52103 -0.34131,-0.85949c1.01074,-0.23546 3.96387,1.17934 5.01855,-0.01158c-0.80273,-0.81011 -3.22852,-0.77333 -4.35791,-1.64879c-0.53027,-1.263 4.27881,-2.34857 5.37598,-2.75458z" fill="#237dcd"/><path d="M168.75732,126.76733l0.66064,0.1537c0.65771,-0.44117 0.88623,-0.83824 1.68604,-0.64498c4.33008,1.04674 4.58057,3.24996 9.25342,3.40952c-0.24023,3.48527 -3.37939,8.34212 -7.24805,8.80527c-0.62109,0.07429 -1.52637,-0.20938 -1.99805,-0.64674c-0.24316,-0.95092 0.99756,-0.98154 1.3916,-1.83414l-0.2168,-0.20322l0.20801,0.27868l-0.05566,0.11868l-0.19775,-0.4063c-1.58203,-0.41289 -3.98145,2.93524 -5.44336,0.59458c-1.49414,-2.3915 1.62158,-2.76352 2.01709,-4.35722l-0.10547,-0.09656c-0.49658,0.12278 -2.77295,0.77289 -3.03369,0.71927c-3.97998,-0.8189 -0.20215,-3.8504 1.58643,-4.7033c0.39404,-0.18799 1.16016,-0.87604 1.49561,-1.18725z" fill="#da7100"/><path d="M180.39111,119.47282l1.88672,0.09304c2.29248,4.8148 3.8584,9.25641 4.35352,14.56176c-1.42676,0.75253 -3.44092,1.61626 -4.94238,2.31619l-3.20215,1.33714c5.47559,-6.0504 4.34912,-11.34579 1.9043,-18.30813z" fill="#237dcd"/><path d="M102.52222,77.89319c1.13921,1.1137 2.98652,3.64938 4.31924,5.07868c3.49116,3.74374 6.44927,5.98286 10.5167,8.92938c-3.03354,-0.25275 -11.73208,-6.22388 -14.16401,-8.13802c-0.42949,-2.01978 -0.53159,-3.82491 -0.67192,-5.87004z" fill="#ffffff"/><path d="M90.86045,53.08879c0.94424,0.22857 1.31807,1.30037 1.66743,2.13934c0.74648,1.79223 1.99014,2.38711 3.78369,2.86711c0.346,0.0926 0.43813,0.37216 0.55137,0.65319c-0.33428,1.16029 -2.41479,1.04718 -3.38218,1.9181c-1.12222,1.01026 -1.18579,2.28601 -2.04961,3.49348c-1.70771,-0.59267 -1.25259,-2.6107 -2.96338,-3.64293c-0.78516,-0.47355 -2.80796,-0.93216 -3.07456,-1.53275c0.33882,-1.01216 3.06489,-1.68894 3.74326,-2.49304c0.79658,-0.94432 0.86235,-2.30623 1.72397,-3.40249z" fill="#fec904"/><path d="M97.06523,66.32938c0.12451,0.0737 1.26724,1.24703 1.50747,1.42857c0.12964,0.09788 -0.00937,0.33084 -0.06855,0.50637c-0.58301,0.41656 -0.68877,0.50784 -1.06172,1.12718l-0.08525,0.14374c-0.42114,0.09055 -1.40581,-1.1222 -1.84014,-1.50007c0.86147,-0.66212 0.98789,-0.78491 1.54819,-1.70579z" fill="#fec904"/><path d="M87.68599,68.07502c0.17856,0.0948 1.01191,1.0356 1.25171,1.22828c0.19321,0.15516 0.07295,0.46564 0.02021,0.69963c-0.47798,0.46916 -0.57334,0.62476 -0.848,1.23766c-0.50889,-0.18462 -1.26592,-0.81026 -1.4543,-1.33612c0.06694,-0.64879 0.65361,-1.2211 1.03037,-1.82945z" fill="#fec904"/></g></svg></svg>